<svg xmlns="http://www.w3.org/2000/svg" xmlns:xlink="http://www.w3.org/1999/xlink" width="984" height="756" viewBox="0 0 984 756"><defs><style>.a{fill:#fff;stroke:#707070;}.b{clip-path:url(#a);}.c{clip-path:url(#b);}.d{opacity:0.597;}.e{opacity:0.3;}.f{fill:#1a1818;}.g{opacity:0.05;}.h{opacity:0.15;}</style><clipPath id="a"><rect class="a" width="984" height="756" transform="translate(458)"/></clipPath><clipPath id="b"><rect class="a" width="1440" height="756"/></clipPath></defs><g class="b" transform="translate(-458)"><g class="c"><g class="d" transform="translate(627.5 -247.673)"><g class="e" transform="translate(0 165.429)"><path class="f" d="M429.984,348.383l1.943,3.292a107.821,107.821,0,0,0,13.252-8.91l-2.42-2.973A103.535,103.535,0,0,1,429.984,348.383Z" transform="translate(346.171 132.92)"/><path class="f" d="M435.609,297.1l-2.4,2.984A104.346,104.346,0,0,1,444.591,310.4l2.826-2.6A107.63,107.63,0,0,0,435.609,297.1Z" transform="translate(355.42 13.114)"/><path class="f" d="M427.689,292.978l-1.405,3.543a104.746,104.746,0,0,1,13.972,6.573l1.928-3.3A108.336,108.336,0,0,0,427.689,292.978Z" transform="translate(335.546 1.556)"/><path class="f" d="M445.633,326.539l3.825-.578a104.082,104.082,0,0,0-3.62-15.38l-3.7,1.13A100.839,100.839,0,0,1,445.633,326.539Z" transform="translate(381.079 50.947)"/><path class="f" d="M418.5,294.965a105.761,105.761,0,0,1,15.315,2.2l.848-3.711a110.009,110.009,0,0,0-15.893-2.287Z" transform="translate(313.192 -3.526)"/><path class="f" d="M444.2,318.758v.422a101.692,101.692,0,0,1-1.138,15.178l3.825.563a105.283,105.283,0,0,0,1.185-15.791v-.373Z" transform="translate(383.718 73.895)"/><path class="f" d="M436.215,345.846l2.834,2.588a106.246,106.246,0,0,0,10.02-12.343l-3.2-2.147A103.032,103.032,0,0,1,436.215,345.846Z" transform="translate(364.063 116.508)"/><path class="f" d="M417.065,293.04a108,108,0,0,0-14.433,6.893l1.951,3.288a104.172,104.172,0,0,1,13.91-6.645Z" transform="translate(267.63 1.73)"/><path class="f" d="M440.711,340.931l3.484,1.656a104.006,104.006,0,0,0,5.877-14.71l-3.7-1.119A100.5,100.5,0,0,1,440.711,340.931Z" transform="translate(376.973 96.341)"/><path class="f" d="M441.844,303.142,438.65,305.3a101.863,101.863,0,0,1,7.8,13.142l3.477-1.671A105.487,105.487,0,0,0,441.844,303.142Z" transform="translate(371.055 30.076)"/><path class="f" d="M410.346,300.168l-2.427-2.969a108.385,108.385,0,0,0-11.738,10.767l2.842,2.584A103.71,103.71,0,0,1,410.346,300.168Z" transform="translate(249.103 13.4)"/><path class="f" d="M421.833,351.988l.852-3.715a104.956,104.956,0,0,1-14.812-4.465l-1.405,3.543A108.848,108.848,0,0,0,421.833,351.988Z" transform="translate(278.642 144.189)"/><path class="f" d="M423.428,351.991a107.583,107.583,0,0,0,15.35-4.662l-1.421-3.54a104.673,104.673,0,0,1-14.793,4.495Z" transform="translate(324.867 144.133)"/><path class="f" d="M396.849,333.984l-3.19,2.154a106.693,106.693,0,0,0,10.035,12.32l2.834-2.6A102.531,102.531,0,0,1,396.849,333.984Z" transform="translate(241.864 116.62)"/><path class="f" d="M388.812,318.93a104.765,104.765,0,0,0,1.216,15.742l3.825-.567a101.366,101.366,0,0,1-1.169-15.182Z" transform="translate(227.946 74.358)"/><path class="f" d="M389.108,326.148l3.837.552a99.974,99.974,0,0,1,3.4-14.847l-3.7-1.111A104.873,104.873,0,0,0,389.108,326.148Z" transform="translate(228.796 51.399)"/><path class="f" d="M414.819,345.583l-.279,3.795c2.609.186,5.269.282,7.909.282,2.718,0,5.459-.1,8.142-.3l-.29-3.8A107.8,107.8,0,0,1,414.819,345.583Z" transform="translate(301.823 149.114)"/><path class="f" d="M953.777,563.745c-.689,0-1.363.072-2.044.1l-6.411-56.725c.128-.008.256-.034.387-.042l-.294-3.795c-.174.011-.348.042-.523.057l-4.921-43.534a28.2,28.2,0,0,0,22.1-27.312,27.441,27.441,0,0,0-.856-6.687l187.523-84.06-93.465-98.725a15.943,15.943,0,0,0,4.684-11.274,16.441,16.441,0,0,0-32.877,0c0,.046.016.087.016.133l-163.462,8.5a22.752,22.752,0,1,0,.379,4c0-.068-.008-.137-.008-.206l163.617-8.51a16.354,16.354,0,0,0,15.9,12.244,16.527,16.527,0,0,0,8.719-2.5l90.008,95.071L960.033,422.157a28.569,28.569,0,0,0-26.508-17.721c-15.741,0-28.544,12.59-28.544,28.062s12.8,28.062,28.544,28.062c.883,0,1.754-.053,2.621-.133l4.9,43.351a108.625,108.625,0,0,0-11.506,1.892l.871,3.707a105.36,105.36,0,0,1,11.065-1.819l6.4,56.611a45.8,45.8,0,0,0-30.163,17.024L867.5,552.232c.17-.251.318-.518.492-.769l-3.206-2.139c-.221.32-.41.662-.627.982l-90.058-51.949a12.378,12.378,0,0,0,1.653-6.1,12.921,12.921,0,0,0-25.838,0,12.445,12.445,0,0,0,2.025,6.771L704.7,528.673,640.682,405.646c.724-.441,1.483-.826,2.184-1.3l-2.2-3.132c-.561.384-1.173.685-1.75,1.043l-10.163-19.533a23.54,23.54,0,0,0,9.706-18.966,24.129,24.129,0,0,0-48.25,0,23.54,23.54,0,0,0,9.675,18.946l-70.322,85.56a8.831,8.831,0,0,0-8.916.605l-68.738-62.838A11.85,11.85,0,0,0,454,399.3a12.286,12.286,0,0,0-24.568,0,11.474,11.474,0,0,0,.19,1.831L286.678,462.87a29.487,29.487,0,0,0-27.348-19.026L246.151,326.42a6.308,6.308,0,1,0-3.848.426l13.155,117.211A29.212,29.212,0,0,0,229.5,472.83c0,15.993,13.233,29,29.5,29s29.5-13.009,29.5-29a28.29,28.29,0,0,0-.72-6.284l143.032-61.783a12.26,12.26,0,0,0,18.413,4.019l68.808,62.895a8.495,8.495,0,0,0-1.231,4.35,8.848,8.848,0,0,0,17.693,0,8.532,8.532,0,0,0-1.936-5.367l54.089-65.806a50.307,50.307,0,0,0,9.938,5.062l1.371-3.562a46.041,46.041,0,0,1-8.858-4.484l14.061-17.112a24.331,24.331,0,0,0,22.3.015L635.58,404.2a46.827,46.827,0,0,1-4.781,2.124l1.378,3.555a49.46,49.46,0,0,0,5.164-2.3l64.081,123.148L568.053,614.419a13,13,0,0,0-22.3,3.376L408.374,585.1c.019-.354.108-.693.108-1.051a19.85,19.85,0,1,0-19.849,19.51,19.961,19.961,0,0,0,10.859-3.212l117.02,146.628a27.546,27.546,0,0,0-5.064,6.112L324.131,663.969a12.13,12.13,0,0,0,.387-2.923,12.647,12.647,0,1,0-1.878,6.444L482.61,743.6a54.43,54.43,0,0,0-3.585,10.95l3.79.78a50.442,50.442,0,0,1,3.287-10.067l23.574,11.216a26.709,26.709,0,0,0-2.153,10.516,27.689,27.689,0,1,0,27.685-27.217,27.822,27.822,0,0,0-15.68,4.811L402.513,597.969a19.414,19.414,0,0,0,5.281-9.089L544.96,621.521c-.016.255-.077.495-.077.754a13,13,0,0,0,25.993,0,12.477,12.477,0,0,0-.89-4.552l133.206-83.588,77.488,148.907a7.826,7.826,0,0,0-1.622,4.746,8.131,8.131,0,0,0,16.26,0,8.188,8.188,0,0,0-.089-.875l118.823-56.131a45.545,45.545,0,0,0,14.994,15.6l-27.96,50.007a103.878,103.878,0,0,1-11.823-7.966L886.85,691.4a108.771,108.771,0,0,0,12.369,8.332L870.6,750.926a12.945,12.945,0,0,0-6.276-1.659,12.7,12.7,0,1,0,0,25.4,13.006,13.006,0,0,0,7.155-2.135L974.455,924.393a7.78,7.78,0,0,0-1.034,1.915L769.034,901.3c.019-.236.073-.464.073-.708a8.069,8.069,0,1,0-1.347,4.388l205.254,25.116a8.015,8.015,0,1,0,4.429-8.156L874.338,769.9a12.371,12.371,0,0,0-.635-16.625L932.375,648.33a46.009,46.009,0,0,0,21.4,5.256c25.2,0,45.7-20.149,45.7-44.919S978.972,563.745,953.777,563.745Zm-93.636-319.36a19.107,19.107,0,1,1-.387-3.8l-7.313.381a12.21,12.21,0,1,0,.836,4.32c0-.186-.05-.362-.058-.544l6.922-.362ZM958.2,432.5a24.365,24.365,0,0,1-18.657,23.495l-.9-7.932a16.41,16.41,0,0,0,11.6-15.563,16.216,16.216,0,0,0-.174-1.69l7.576-3.395A23.671,23.671,0,0,1,958.2,432.5Zm-24.673,24.256a24.258,24.258,0,1,1,22.981-33.017l-7.3,3.269a16.631,16.631,0,1,0-15.683,21.923c.445,0,.867-.1,1.3-.129l.887,7.844C934.992,456.708,934.265,456.754,933.525,456.754ZM283.132,464.4l-9.412,4.065A15.276,15.276,0,0,0,260.9,457.842l-1.142-10.174A25.606,25.606,0,0,1,283.132,464.4Zm1.506,8.427a25.635,25.635,0,1,1-28.757-24.99l1.127,10.01a15.164,15.164,0,1,0,17.437,14.98c0-.171-.046-.327-.05-.495l9.775-4.225A24.642,24.642,0,0,1,284.638,472.83ZM594.081,363.757a20.257,20.257,0,0,1,40.507,0,19.67,19.67,0,0,1-7.658,15.464l-2.126-4.088A15.181,15.181,0,0,0,630,363.757a15.664,15.664,0,0,0-31.324,0,15.266,15.266,0,0,0,6.535,12.469l-2.865,3.486A19.727,19.727,0,0,1,594.081,363.757Zm20.252,19.909a20.342,20.342,0,0,1-8.641-1.975l2.973-3.616a15.377,15.377,0,0,0,12.931-.754l2.079,4A20.268,20.268,0,0,1,614.333,383.666ZM518.905,749.974l4,5.016a15.49,15.49,0,0,0-2.064,2.573l-5.9-2.809A23.653,23.653,0,0,1,518.905,749.974Zm16.3-6.39a23.414,23.414,0,1,1-23.814,23.411,22.9,22.9,0,0,1,1.781-8.853l6.032,2.87a15.147,15.147,0,0,0-.89,4.936,15.854,15.854,0,1,0,15.854-15.586,15.94,15.94,0,0,0-8.2,2.3l-4.057-5.085A23.941,23.941,0,0,1,535.208,743.584ZM388.633,599.758a15.708,15.708,0,1,1,15.978-15.7c0,.053-.015.1-.015.152l-5.184-1.237a10.851,10.851,0,1,0-10.774,11.787,10.919,10.919,0,0,0,5.273-1.4l3.171,3.97A16.049,16.049,0,0,1,388.633,599.758Zm11.467-4.811-3.2-4.008a10.533,10.533,0,0,0,2.207-4.126l4.932,1.176A15.616,15.616,0,0,1,400.1,594.947Zm548.2-27,1.738,15.392a26.14,26.14,0,0,0-15.18,7.745l-13.794-7.955A41.945,41.945,0,0,1,948.3,567.947Zm-18.339,51.1-14.177,6.695a40.182,40.182,0,0,1,3-39.514l13.6,7.84a25.151,25.151,0,0,0-2.42,24.979Zm-69.938,33.036a101.126,101.126,0,0,1-5.258-13.192l-3.7,1.127a104.484,104.484,0,0,0,5.463,13.717L793.92,683.308a8.156,8.156,0,0,0-10.178-2.737l-77.271-148.5,48.068-30.163a12.921,12.921,0,0,0,17.216-.495l90.357,52.116a105.274,105.274,0,0,0-5.335,9.481l3.5,1.648a101.539,101.539,0,0,1,5.176-9.2l50,28.842a43.868,43.868,0,0,0-3.152,43.084Zm57.534-22.954L931.8,622.4a25.854,25.854,0,0,0,6.732,7.018l-7.623,13.633A41.638,41.638,0,0,1,917.555,629.125Zm36.222,20.655a42.063,42.063,0,0,1-19.536-4.788l7.588-13.572a26.261,26.261,0,0,0,11.947,2.87,25.621,25.621,0,1,0,.124-51.237l-1.742-15.418c.542-.023,1.072-.084,1.618-.084,23.062,0,41.824,18.448,41.824,41.117S976.839,649.78,953.777,649.78Z" transform="translate(-229.504 -215.592)"/><path class="f" d="M309.629,375.32l.4,3.787a57.164,57.164,0,0,0,11.522-2.405l-1.2-3.62A53.018,53.018,0,0,1,309.629,375.32Z" transform="translate(0.573 226.33)"/><path class="f" d="M319.81,349.344l-2.579,2.835a52.413,52.413,0,0,1,7.371,7.989l3.12-2.253A56.088,56.088,0,0,0,319.81,349.344Z" transform="translate(22.405 159.721)"/><path class="f" d="M314.982,376.607l1.944,3.292a56.554,56.554,0,0,0,9.512-6.817l-2.594-2.824A52.723,52.723,0,0,1,314.982,376.607Z" transform="translate(15.945 218.409)"/><path class="f" d="M303.717,376.709a56.966,56.966,0,0,0,11.522,2.383l.4-3.787a53.152,53.152,0,0,1-10.728-2.215Z" transform="translate(-16.403 226.353)"/><path class="f" d="M297.518,360.22l-3.871.008a54.763,54.763,0,0,0,1.243,11.509l3.783-.8A51.44,51.44,0,0,1,297.518,360.22Z" transform="translate(-45.319 190.239)"/><path class="f" d="M298.477,373.109a56.609,56.609,0,0,0,9.528,6.8l1.932-3.3a52.612,52.612,0,0,1-8.873-6.329Z" transform="translate(-31.449 218.46)"/><path class="f" d="M294.913,367.284a55.043,55.043,0,0,0,5.908,10.006l3.128-2.246a51.3,51.3,0,0,1-5.505-9.317Z" transform="translate(-41.683 205.692)"/><path class="f" d="M307.048,349.741a54.172,54.172,0,0,1,10.968-.034l.387-3.787a58.2,58.2,0,0,0-11.769.038Z" transform="translate(-8.027 149.329)"/><path class="f" d="M304.264,349.4a55.9,55.9,0,0,0-7.859,8.617l3.132,2.23a52.553,52.553,0,0,1,7.321-8.027Z" transform="translate(-37.399 159.886)"/><path class="f" d="M302.835,354.4a52.526,52.526,0,0,1,10-4.415l-1.208-3.62a57.015,57.015,0,0,0-10.739,4.742Z" transform="translate(-24.526 151.35)"/><path class="f" d="M312.345,349.961a52.648,52.648,0,0,1,10.031,4.354l1.928-3.3a56.932,56.932,0,0,0-10.774-4.681Z" transform="translate(8.372 151.275)"/><path class="f" d="M319.167,375.031l3.132,2.242a55.354,55.354,0,0,0,5.892-10.021l-3.538-1.549A51.123,51.123,0,0,1,319.167,375.031Z" transform="translate(27.962 205.622)"/><path class="f" d="M321.458,371.076l3.79.788a54.742,54.742,0,0,0,1.216-11.509v-.221l-3.871.221A51.137,51.137,0,0,1,321.458,371.076Z" transform="translate(34.54 189.998)"/><path class="f" d="M327.771,365.218a54.47,54.47,0,0,0-3.678-11l-3.531,1.56a51.092,51.092,0,0,1,3.426,10.238Z" transform="translate(31.967 173.408)"/><path class="f" d="M340.759,271.628a49.512,49.512,0,0,0,6.876-9.778l-3.426-1.774a45.744,45.744,0,0,1-6.345,9.028Z" transform="translate(81.647 -90.766)"/><path class="f" d="M346.933,251.681a50.064,50.064,0,0,0-9.075-7.852l-2.191,3.136a46.334,46.334,0,0,1,8.378,7.251Z" transform="translate(75.341 -136.358)"/><path class="f" d="M342.517,244.445a50.937,50.937,0,0,0-11.762-2.8l-.445,3.779a46.579,46.579,0,0,1,10.844,2.584Z" transform="translate(59.959 -142.478)"/><path class="f" d="M340.523,265.557l3.759.906a48.638,48.638,0,0,0,1.444-11.8v-.194l-3.871.194A45.061,45.061,0,0,1,340.523,265.557Z" transform="translate(89.285 -106.499)"/><path class="f" d="M347.226,259.555a48.161,48.161,0,0,0-4.332-11.1l-3.415,1.785a44.612,44.612,0,0,1,3.992,10.234Z" transform="translate(86.287 -123.383)"/><path class="f" d="M338.981,266.395a48.049,48.049,0,0,1-11.165.012l-.457,3.779a51.393,51.393,0,0,0,5.985.346,52.188,52.188,0,0,0,6.1-.358Z" transform="translate(51.485 -73.037)"/><path class="f" d="M336.487,245.434l-.476-3.776a50.828,50.828,0,0,0-11.738,2.87l1.386,3.555A46.676,46.676,0,0,1,336.487,245.434Z" transform="translate(42.623 -142.45)"/><path class="f" d="M321.172,265.434a44.828,44.828,0,0,1-1.355-10.889l-3.871.008a48.8,48.8,0,0,0,1.467,11.795Z" transform="translate(18.71 -106.289)"/><path class="f" d="M324.008,250.285l-3.434-1.762a48.8,48.8,0,0,0-4.262,11.129l3.763.9A44.85,44.85,0,0,1,324.008,250.285Z" transform="translate(19.761 -123.186)"/><path class="f" d="M330.414,247l-2.207-3.125a49.931,49.931,0,0,0-9.024,7.905l2.9,2.516A46.176,46.176,0,0,1,330.414,247Z" transform="translate(28.008 -136.235)"/><path class="f" d="M324.324,271.635l2.9-2.527a45.646,45.646,0,0,1-6.361-9.009l-3.422,1.774A49.314,49.314,0,0,0,324.324,271.635Z" transform="translate(22.994 -90.704)"/></g><g class="g" transform="translate(107.573 0)"><path class="f" d="M435.779,429.071,546.19,491.577a6.32,6.32,0,1,0,8.8-4.324l21.258-173.917a14.8,14.8,0,1,0-3.84-.487l-21.258,173.94a6.318,6.318,0,0,0-3.012,1.5l-131.5-74.442L594.2,607.935l2.88-2.546Z" transform="translate(200.286 143.17)"/><path class="f" d="M444.9,389.773,276.764,501.114a8.829,8.829,0,0,0-3.062-1.842l23.949-186.458-3.844-.476L269.857,498.808a8.683,8.683,0,1,0,9.69,8.613,8.535,8.535,0,0,0-.619-3.151L447.059,392.928Z" transform="translate(-244.17 221.313)"/><path class="f" d="M640.2,392.187a11.582,11.582,0,0,0-9.8,5.386L476.846,341.289l-1.355,3.562,153.423,56.242a11.332,11.332,0,0,0-.29,2.478,11.177,11.177,0,0,0,2.791,7.334l-68,81.879a12.058,12.058,0,0,0-19.307,7.349H396.745a10.6,10.6,0,1,0,.492,3.806H544.1a12.078,12.078,0,0,0,23.98-1.846,11.673,11.673,0,0,0-1.99-6.508l68.293-82.229a11.426,11.426,0,1,0,5.819-21.169Z" transform="translate(82.587 302.547)"/><path class="f" d="M432.323,268.893a48.262,48.262,0,0,0-4.332-11.1l-3.418,1.781a44.731,44.731,0,0,1,4,10.238Z" transform="translate(223.057 68.249)"/><path class="f" d="M425.617,274.9l3.759.906A48.641,48.641,0,0,0,430.82,264v-.2l-3.871.2A45.061,45.061,0,0,1,425.617,274.9Z" transform="translate(226.058 85.13)"/><path class="f" d="M425.853,280.966a49.448,49.448,0,0,0,6.872-9.778l-3.422-1.774a45.731,45.731,0,0,1-6.345,9.028Z" transform="translate(218.42 100.867)"/><path class="f" d="M419.625,282.366a50.084,50.084,0,0,0,10.693-5.538l-2.2-3.129a46.422,46.422,0,0,1-9.868,5.108Z" transform="translate(204.907 112.89)"/><path class="f" d="M432.027,261.018a50.205,50.205,0,0,0-9.075-7.852l-2.191,3.136a46.487,46.487,0,0,1,8.378,7.25Z" transform="translate(212.114 55.271)"/><path class="f" d="M401.4,268.99l3.767.9a44.666,44.666,0,0,1,3.933-10.265l-3.434-1.762A48.617,48.617,0,0,0,401.4,268.99Z" transform="translate(156.531 68.445)"/><path class="f" d="M412.906,275.747l-.453,3.779a51.341,51.341,0,0,0,5.989.346,52.2,52.2,0,0,0,6.1-.358l-.468-3.783A47.843,47.843,0,0,1,412.906,275.747Z" transform="translate(188.258 118.592)"/><path class="f" d="M415.4,254.765a46.488,46.488,0,0,1,10.844,2.584l1.363-3.566a50.664,50.664,0,0,0-11.758-2.8Z" transform="translate(196.729 49.154)"/><path class="f" d="M401.039,263.891a48.8,48.8,0,0,0,1.467,11.795l3.759-.913a44.851,44.851,0,0,1-1.355-10.889Z" transform="translate(155.483 85.346)"/><path class="f" d="M410.753,257.421a46.785,46.785,0,0,1,10.825-2.649L421.1,251a50.748,50.748,0,0,0-11.734,2.87Z" transform="translate(179.396 49.182)"/><path class="f" d="M404.277,261.119l2.9,2.516a46.334,46.334,0,0,1,8.331-7.3L413.3,253.21A50.37,50.37,0,0,0,404.277,261.119Z" transform="translate(164.78 55.395)"/><path class="f" d="M772.247,682.626A35.057,35.057,0,0,0,803.1,700.888c19.272,0,34.952-15.414,34.952-34.357a34.217,34.217,0,0,0-16.822-29.318l36.225-93.579a26.024,26.024,0,0,0,6.531.856,25.333,25.333,0,1,0,0-50.658,25.854,25.854,0,0,0-20.643,10.238L774,466.573l35.974-58.194a7.888,7.888,0,1,0-6.121-8.689l-27.817,5.1,31.409-39.834a11.646,11.646,0,0,0,5.463,1.4,11.429,11.429,0,1,0,0-22.855,11.75,11.75,0,0,0-4.359.849l-73.4-117.123a29.32,29.32,0,0,0,13.175-24.385,28.645,28.645,0,0,0-.53-5.408L873.6,180.991a6.179,6.179,0,1,0-.519-3.772L746.835,193.711a29.953,29.953,0,0,0-28.471-20.332c-16.523,0-29.961,13.211-29.961,29.455s13.438,29.455,29.961,29.455a30.149,30.149,0,0,0,13.43-3.163l73.477,117.241a11.161,11.161,0,0,0-.894,16.263l-34.073,43.2L633.551,430.884a6.152,6.152,0,1,0,1.417,3.875c0-.088-.023-.171-.027-.255l131.8-24.145-24.816,31.464a7.888,7.888,0,1,0,1.92,12.792l24.747,13.378-41.444,67.043a11.6,11.6,0,0,0-2.9-.407,11.31,11.31,0,1,0,2.935,22.2l15.676,23.818-60.709,31.895,1.823,3.357,61-32.047,36.632,55.656a34.087,34.087,0,0,0-13.438,27.023,33.624,33.624,0,0,0,2.447,12.545l-112.443,84a12.307,12.307,0,0,0-18.057,1.252L536.439,707.217a6.119,6.119,0,0,0,.12-1.2,6.2,6.2,0,0,0-6.253-6.15,6.27,6.27,0,0,0-4.3,1.705l-45.2-24a8.386,8.386,0,0,0,.368-2.341,8.848,8.848,0,0,0-17.693,0c0,.091.027.179.031.274L338.7,707.213l95.022-133.9a24.236,24.236,0,0,0,12.153,3.266,23.719,23.719,0,1,0-24.123-23.715,23.187,23.187,0,0,0,2.242,9.919l-151.309,83.7a8.633,8.633,0,1,0,2.3,5.8,8.5,8.5,0,0,0-.41-2.481l151.3-83.691a23.923,23.923,0,0,0,4.661,5.043l-101,142.319,134.952-34.289a8.842,8.842,0,0,0,14.476,1.732l45.2,24a6.05,6.05,0,0,0-.116,1.1,6.188,6.188,0,0,0,7.882,5.911l88.8,133.143,3.237-2.086-87.7-131.506L638.2,767.634a11.741,11.741,0,0,0-.794,4.149,12.286,12.286,0,0,0,24.568,0,11.773,11.773,0,0,0-1.5-5.663Zm-27.8-479.792a25.516,25.516,0,0,1-11.339,21.135l-5.7-9.1a14.5,14.5,0,0,0,5.765-15.536l10.786-1.408A25.365,25.365,0,0,1,744.45,202.834Zm-26.086,25.649a25.652,25.652,0,1,1,24.541-34.258l-11.193,1.462a15.166,15.166,0,1,0-13.353,22.159,15.436,15.436,0,0,0,5.676-1.1l5.718,9.123A26.222,26.222,0,0,1,718.364,228.483ZM834.183,666.531c0,16.845-13.941,30.551-31.08,30.551a31.134,31.134,0,0,1-27.712-16.8l6.314-4.716a23.352,23.352,0,0,0,44.685-9.032,22.7,22.7,0,0,0-9.4-18.349l2.849-7.357A30.408,30.408,0,0,1,834.183,666.531ZM803.1,643.637a23.473,23.473,0,0,0-12.009,3.3l-4.22-6.417a31.228,31.228,0,0,1,29.536-1.564l-2.776,7.171A23.461,23.461,0,0,0,803.1,643.637Zm60.887-146a21.526,21.526,0,1,1,0,43.046,22.261,22.261,0,0,1-5.145-.624l2.764-7.148a14.415,14.415,0,0,0,2.381.236,13.989,13.989,0,1,0,0-27.974,14.256,14.256,0,0,0-10.36,4.453l-6.86-3.711A21.983,21.983,0,0,1,863.99,497.638ZM842.1,519.161a21.074,21.074,0,0,1,2.547-10.048l6.76,3.654a13.195,13.195,0,0,0-.716,11.228l-6.841,3.593A21.052,21.052,0,0,1,842.1,519.161Zm10.406,8.191a14.148,14.148,0,0,0,5.409,4.411l-2.741,7.083a21.938,21.938,0,0,1-9.485-7.909ZM745.929,451.395a7.539,7.539,0,0,0-1.049-7.106l27.584-34.981,31.824-5.831a7.875,7.875,0,0,0,2.234,3.148L770.6,464.735Zm-15.18,103.863a11.19,11.19,0,0,0-.035-18.665l41.27-66.765,69.265,37.451a24.816,24.816,0,0,0-.817,22.1l-94.155,49.467Zm17.638,26.794,71.379-37.5a49.473,49.473,0,0,0,6.713,9.477l2.9-2.527a45.471,45.471,0,0,1-6.194-8.742l19.09-10.029a25.8,25.8,0,0,0,11.518,9.682L845.8,563.056a46.23,46.23,0,0,1-8.064-4.289l-2.2,3.132a50.391,50.391,0,0,0,8.889,4.716L817.791,635.4a35.11,35.11,0,0,0-33.02,1.937Zm23.639,84.479A30.311,30.311,0,0,1,783.7,642.7l4.255,6.463a22.468,22.468,0,0,0-7.511,22.558l-6.616,4.94A29.86,29.86,0,0,1,772.027,666.531ZM425.618,552.864a20.419,20.419,0,1,1,10.36,17.264l4.561-6.432a12.317,12.317,0,0,0,5.331,1.245,12.078,12.078,0,1,0-12.284-12.077,11.83,11.83,0,0,0,.8,4.168l-7,3.875A19.437,19.437,0,0,1,425.618,552.864Zm3.662,11.361,7.015-3.882a12.055,12.055,0,0,0,1.057,1.2l-4.549,6.409A20.1,20.1,0,0,1,429.281,564.225Z" transform="translate(-257.29 -172.127)"/></g><g class="h" transform="translate(56.648 79.569)"><path class="f" d="M1079.331,846.049l-26.117-174.606a14.059,14.059,0,1,0-3.9.6l.077-.008L1075.2,844.6l-105.9,95.01a14.141,14.141,0,0,0-14.646-.891L867.135,782.93a27.174,27.174,0,0,0,14.371-23.849,27.689,27.689,0,0,0-55.37,0c0,.556.05,1.1.085,1.648l-53.992,11.262a107.37,107.37,0,0,0-2.668-11.247l-3.713,1.085a102.791,102.791,0,0,1,2.594,10.954l-57.232,11.939a45.041,45.041,0,0,0-21.467-29.664L720.971,703.6c.108.068.224.126.333.194l2.087-3.208c-.143-.088-.294-.164-.437-.251l49.621-81.765a11.278,11.278,0,1,0-2.981-20.012l-42.137-48.6L627.444,440.848a13.714,13.714,0,0,0,4.917-10.459,13.881,13.881,0,0,0-9.384-13.039l23.783-138.243a8.138,8.138,0,1,0-9.563-8.012,7.974,7.974,0,0,0,.6,3L492.542,394.483c-.67-.841-1.351-1.667-2.083-2.451l-2.853,2.573c.7.746,1.347,1.53,1.982,2.325l-8.842,7.33a27.582,27.582,0,0,0-7.724-6.98l4.584-10.326a39.133,39.133,0,0,1,4.684,2.919l2.327-3.041a42.755,42.755,0,0,0-5.455-3.38l74.816-168.482a11.5,11.5,0,0,0,2.679.346,11.144,11.144,0,1,0-11.336-11.144,11.084,11.084,0,0,0,5.1,9.294L469.592,395.491a27.9,27.9,0,0,0-11.065-2.287,27.221,27.221,0,1,0,27.685,27.217,26.673,26.673,0,0,0-3.341-12.944l8.966-7.429c.035.053.077.107.112.164l3.283-2.021c-.132-.209-.29-.4-.426-.605L640.045,277.2a8.332,8.332,0,0,0,2.838,1.591l-23.7,137.794c-.325-.023-.635-.1-.968-.1a13.907,13.907,0,1,0,0,27.811,14.266,14.266,0,0,0,5.954-1.332L724.544,552.475l42.28,48.771A11.052,11.052,0,0,0,769.14,616.8l-49.524,81.6a110.56,110.56,0,0,0-9.985-5.153l-1.595,3.467a106.035,106.035,0,0,1,9.6,4.956l-31.3,51.575a45.925,45.925,0,0,0-61.646,22.178l-28.068-11.418,30.1-69.734c2.486-.929,5-1.781,7.53-2.52l-1.1-3.65c-1.479.43-2.935.959-4.4,1.454l53.535-124.035a6.454,6.454,0,1,0-6.794-6.44,6.413,6.413,0,0,0,3.028,5.427L623.77,691.361c-1.769.693-3.542,1.382-5.265,2.162l1.618,3.456c.488-.217,1-.4,1.483-.609l-28.564,66.183-26.454-10.76c.461-1.092.875-2.2,1.371-3.269l-3.523-1.576c-.511,1.111-.945,2.261-1.421,3.391L509.832,728.7a12.846,12.846,0,0,0,.263-2.577A13.229,13.229,0,1,0,496.87,739.13a13.269,13.269,0,0,0,6.365-1.671l52.7,70.514a105.8,105.8,0,0,0,2.462,11.4c-.151.24-.279.495-.414.746L293.792,756.634c.062-.693.108-1.389.108-2.1a24.886,24.886,0,1,0-28.928,24.111l-4.9,97.785,1.928.1a6.31,6.31,0,1,0,.019,0l1.92.091,4.894-97.629c.062,0,.124.008.186.008a24.821,24.821,0,0,0,24.131-18.6l263.663,63.359a10.788,10.788,0,0,0-.155,1.515,11.255,11.255,0,0,0,8.785,10.9l-.825.369a107.621,107.621,0,0,0,7.526,13.477l3.252-2.067a103.786,103.786,0,0,1-6.512-11.529A11.278,11.278,0,0,0,579.5,825.269a11.149,11.149,0,0,0-5.254-9.428L595.1,767.512l28.177,11.46a43.826,43.826,0,0,0,7.139,42.205l-44.135,40.542c-.6-.643-1.239-1.256-1.82-1.914l-2.919,2.5c.612.693,1.281,1.336,1.912,2.013L484.3,955.389a27.815,27.815,0,0,0-16.566-5.462,27.485,27.485,0,0,0-27.685,27.217A27,27,0,0,0,450.3,998.268l-67.631,119.814a8.862,8.862,0,0,0-2.474-.388,8.7,8.7,0,1,0,8.846,8.7,8.579,8.579,0,0,0-2.985-6.466L453.5,1000.449a27.85,27.85,0,0,0,14.232,3.912,27.485,27.485,0,0,0,27.685-27.217,26.912,26.912,0,0,0-8.153-19.27L586.1,867.093c2.1,2.109,4.266,4.153,6.523,6.071l2.536-2.877c-2.156-1.831-4.224-3.779-6.233-5.789l44.011-40.42a45.778,45.778,0,0,0,12.923,9.6L614.633,883.39c-2.513-1.317-4.986-2.71-7.375-4.217l-2.094,3.2c2.4,1.522,4.9,2.931,7.429,4.267l-23.941,38.114,208.723,6.478a12.025,12.025,0,0,0,12.013,10.691,11.308,11.308,0,0,0,1.3-.129L864.943,1145.9a8.644,8.644,0,0,0-4.8,7.692,8.846,8.846,0,1,0,8.843-8.7c-.1,0-.2.026-.3.03L814.428,940.82a11.91,11.91,0,0,0,7.1-10.832,12.157,12.157,0,0,0-23.992-2.558l-202.076-6.272,20.6-32.8c.948.457,1.878.963,2.834,1.393l1.607-3.464c-.813-.365-1.595-.8-2.4-1.18l31.3-49.829a46.057,46.057,0,0,0,17.023,3.266c25.2,0,45.691-20.149,45.691-44.919a44.89,44.89,0,0,0-.321-5.13l60.658-12.655.48-.068-.008-.03,53.763-11.216A27.755,27.755,0,0,0,863.6,784.51l87.871,156.405a13.8,13.8,0,0,0-4.507,10.166,14.23,14.23,0,0,0,28.456,0,13.724,13.724,0,0,0-3.291-8.845ZM477.788,406.711l-6.117,5.07a15.347,15.347,0,0,0-3.523-3.524l3.314-7.464A23.835,23.835,0,0,1,477.788,406.711Zm4.553,13.709a23.819,23.819,0,1,1-23.814-23.411,24,24,0,0,1,9.516,1.968l-3.279,7.384A15.668,15.668,0,0,0,459,405.246a15.179,15.179,0,1,0,15.439,15.175,14.783,14.783,0,0,0-.976-5.146L479.82,410A22.9,22.9,0,0,1,482.34,420.421ZM248.007,754.537a21.014,21.014,0,0,1,42.021,0c0,.4-.039.784-.058,1.176l-11.177-2.683a9.924,9.924,0,0,0-19.706,1.507,9.744,9.744,0,0,0,6.636,9.169l-.558,11.125A20.784,20.784,0,0,1,248.007,754.537Zm21.018,20.655.546-10.946a9.853,9.853,0,0,0,9.052-7.342l10.77,2.588A20.966,20.966,0,0,1,269.026,775.193Zm292.51,40.892c-.077-.32-.174-.636-.248-.955l.557.746C561.741,815.944,561.64,816.012,561.536,816.085Zm9.148-1.724a11.538,11.538,0,0,0-2.606-.32,11.665,11.665,0,0,0-2.571.308l-59.172-79.165a12.96,12.96,0,0,0,2.125-2.919l53.078,21.592c-.941,2.485-1.8,5-2.547,7.525l3.721,1.066q1.063-3.6,2.4-7.136l26.419,10.748ZM443.916,977.144a23.64,23.64,0,0,1,23.813-23.411,23.935,23.935,0,0,1,13.7,4.293l-6.187,5.682a15.366,15.366,0,0,0-22.474,13.435,14.891,14.891,0,0,0,3.852,9.934l-4.4,7.795A23.19,23.19,0,0,1,443.916,977.144Zm47.627,0a23.642,23.642,0,0,1-23.813,23.411,23.963,23.963,0,0,1-12.354-3.433l4.181-7.406a15.542,15.542,0,0,0,8.645,2.607,15.311,15.311,0,0,0,15.44-15.179,14.978,14.978,0,0,0-5.134-11.228l5.919-5.439A23.141,23.141,0,0,1,491.543,977.144ZM707.421,785.511,692,788.727A25.65,25.65,0,0,0,679.7,771.6l8.056-13.275A41.208,41.208,0,0,1,707.421,785.511ZM666.429,752.5a42.08,42.08,0,0,1,17.913,4.019l-8.111,13.367a26.352,26.352,0,0,0-9.8-1.891,26.068,26.068,0,0,0-23.6,14.805l-14.561-5.922A41.885,41.885,0,0,1,666.429,752.5Zm-41.824,41.117a40.221,40.221,0,0,1,2.249-13.2l14.588,5.934a25.193,25.193,0,0,0,3.38,21.592l-11.56,10.619A40.427,40.427,0,0,1,624.606,793.621Zm11.158,27.86,11.491-10.55a26.112,26.112,0,0,0,8.959,6.265l-8.312,13.23A41.9,41.9,0,0,1,635.763,821.481Zm72.486-27.86c0,22.673-18.761,41.113-41.82,41.113a42.226,42.226,0,0,1-14.948-2.759l8.513-13.553a26.332,26.332,0,0,0,6.434.822,25.842,25.842,0,0,0,26.059-25.622c0-.369-.039-.727-.054-1.092l15.575-3.25A40.31,40.31,0,0,1,708.249,793.621Zm121.758-34.54a23.817,23.817,0,0,1,47.627,0A23.373,23.373,0,0,1,865.265,779.6l-3.147-5.6a16.965,16.965,0,0,0,9.071-14.916,17.354,17.354,0,0,0-34.688-.5l-6.45,1.347C830.038,759.645,830.007,759.367,830.007,759.082Zm23.81,23.411a23.756,23.756,0,0,1-23.337-18.764l6.31-1.317a17.167,17.167,0,0,0,21.719,13.036l3.2,5.694A23.965,23.965,0,0,1,853.817,782.492Z" transform="translate(-244.136 -193.033)"/><path class="f" d="M352.719,382.214a112.671,112.671,0,0,0,15.6-1.1l-.55-3.768a109.034,109.034,0,0,1-15.056,1.058Z" transform="translate(67.635 324.167)"/><path class="f" d="M376.276,379.435a108.076,108.076,0,0,0,9.388-12.312l-3.26-2.059a103.9,103.9,0,0,1-9.052,11.879Z" transform="translate(126.908 289.689)"/><path class="f" d="M361.5,384a110.222,110.222,0,0,0,14.661-5.386l-1.611-3.46a106.881,106.881,0,0,1-14.139,5.2Z" transform="translate(89.74 318.01)"/><path class="f" d="M324.34,361.435v.217l3.872-.217a104.258,104.258,0,0,1,1.03-14.592l-3.833-.529A107.75,107.75,0,0,0,324.34,361.435Z" transform="translate(-13.832 237.079)"/><path class="f" d="M384.682,350.56l0-.388h-3.871l0,.438a103.922,103.922,0,0,1-1.061,14.8l3.833.537A107.69,107.69,0,0,0,384.682,350.56Z" transform="translate(145.277 247.904)"/><path class="f" d="M377.562,371.9l3.519,1.587a105.536,105.536,0,0,0,5.474-14.429l-3.713-1.07A101.707,101.707,0,0,1,377.562,371.9Z" transform="translate(138.994 269.831)"/><path class="f" d="M369.577,383.05a110.9,110.9,0,0,0,12.509-9.233l-2.54-2.874a106.425,106.425,0,0,1-12.068,8.906Z" transform="translate(110.041 306.188)"/><path class="f" d="M349.125,326.839a108.912,108.912,0,0,1,15.056-1.088l-.015-3.806a112.743,112.743,0,0,0-15.6,1.13Z" transform="translate(55.727 168.698)"/><path class="f" d="M356.488,325.985a107.585,107.585,0,0,1,14.766,3.094l1.072-3.658a111.164,111.164,0,0,0-15.3-3.2Z" transform="translate(78.481 169.462)"/><path class="f" d="M338.159,331.777a108.941,108.941,0,0,0-9.357,12.331l3.26,2.055a104.656,104.656,0,0,1,9.032-11.9Z" transform="translate(-1.019 196.287)"/><path class="f" d="M382.923,349.932l3.515-1.595a108.494,108.494,0,0,0-7.553-13.462l-3.252,2.07A103.689,103.689,0,0,1,382.923,349.932Z" transform="translate(133.455 204.98)"/><path class="f" d="M370.518,331.689a105.089,105.089,0,0,1,10.7,10.455l2.919-2.5a110.031,110.031,0,0,0-11.1-10.84Z" transform="translate(118.768 187.945)"/><path class="f" d="M346.562,326.481a110.063,110.063,0,0,0-12.493,9.252l2.544,2.87a106.791,106.791,0,0,1,12.052-8.929Z" transform="translate(14.105 181.427)"/><path class="f" d="M360.024,383.43l.542-3.768a107.192,107.192,0,0,1-14.758-3.125l-1.08,3.654A110.859,110.859,0,0,0,360.024,383.43Z" transform="translate(44.712 321.885)"/><path class="f" d="M311.456,264.706a41.9,41.9,0,0,0,3.515-6.931l-3.608-1.378a38.262,38.262,0,0,1-3.2,6.307Z" transform="translate(-60.278 -15.229)"/><path class="f" d="M297.843,247.925l-2.865-2.558a42.278,42.278,0,0,0-4.735,6.185l3.291,2A38.888,38.888,0,0,1,297.843,247.925Z" transform="translate(-111.741 -46.182)"/><path class="f" d="M297.322,267.324l2.331-3.041a39.361,39.361,0,0,1-5.3-4.738l-2.853,2.569A42.7,42.7,0,0,0,297.322,267.324Z" transform="translate(-108.145 -6.398)"/><path class="f" d="M308.618,243.18a43.761,43.761,0,0,0-7.747-1.389l-.341,3.791a39.854,39.854,0,0,1,7.046,1.264Z" transform="translate(-82.199 -56.216)"/><path class="f" d="M301.385,246.315l-1.738-3.4a42.742,42.742,0,0,0-6.682,4.1l2.346,3.03A39.075,39.075,0,0,1,301.385,246.315Z" transform="translate(-103.924 -53.06)"/><path class="f" d="M304.69,245.584l-.364-3.787a43.3,43.3,0,0,0-7.739,1.439l1.065,3.658A39.727,39.727,0,0,1,304.69,245.584Z" transform="translate(-93.524 -56.2)"/><path class="f" d="M308.977,250.142a37.014,37.014,0,0,1,1.978,6.76l3.806-.7a40.487,40.487,0,0,0-2.18-7.445Z" transform="translate(-57.946 -36.681)"/><path class="f" d="M313.3,260.609a41.249,41.249,0,0,0,.72-7.711v-.164l-3.871.164a37.674,37.674,0,0,1-.654,7.011Z" transform="translate(-56.456 -25.51)"/><path class="f" d="M296.449,261.764l-1.719,3.406a43.326,43.326,0,0,0,7.348,2.79l1.057-3.661A39.247,39.247,0,0,1,296.449,261.764Z" transform="translate(-98.856 -0.171)"/><path class="f" d="M293.146,259.808a38.142,38.142,0,0,1-.67-7.011l-3.871.008a41.954,41.954,0,0,0,.736,7.707Z" transform="translate(-116.444 -25.333)"/><path class="f" d="M313.834,262.1l-2.857-2.565a39.151,39.151,0,0,1-5.292,4.75l2.335,3.033A42.716,42.716,0,0,0,313.834,262.1Z" transform="translate(-67.402 -6.437)"/><path class="f" d="M289.354,257.8a41.626,41.626,0,0,0,3.531,6.923l3.283-2.009a38.028,38.028,0,0,1-3.206-6.3Z" transform="translate(-114.293 -15.175)"/><path class="f" d="M294.533,250.181l-3.612-1.366a41.123,41.123,0,0,0-2.133,7.452l3.806.689A37.762,37.762,0,0,1,294.533,250.181Z" transform="translate(-115.919 -36.507)"/><path class="f" d="M306.146,262.764a40.225,40.225,0,0,1-7.166.008l-.352,3.791q1.928.171,3.9.171c1.343,0,2.667-.057,3.976-.179Z" transform="translate(-87.663 2.635)"/><path class="f" d="M309.062,261.755a39.082,39.082,0,0,1-6.674,2.55l1.065,3.661a43.5,43.5,0,0,0,7.344-2.809Z" transform="translate(-76.866 -0.197)"/><path class="f" d="M305,409.2a34.793,34.793,0,0,1-3.651-.156l-.345,3.791c1.32.114,2.648.186,4,.171,1.3,0,2.594-.065,3.868-.179l-.36-3.791C307.361,409.145,306.192,409.2,305,409.2Z" transform="translate(-80.829 413.084)"/><path class="f" d="M304.767,410.582l1.061,3.658a42.672,42.672,0,0,0,7.344-2.805l-1.734-3.406A39.066,39.066,0,0,1,304.767,410.582Z" transform="translate(-70.035 410.25)"/><path class="f" d="M297.107,411.444a43.182,43.182,0,0,0,7.356,2.794l1.049-3.665a38.937,38.937,0,0,1-6.678-2.535Z" transform="translate(-92.031 410.278)"/><path class="f" d="M308.062,410.558l2.335,3.033a43.319,43.319,0,0,0,5.819-5.222L313.35,405.8A38.715,38.715,0,0,1,308.062,410.558Z" transform="translate(-60.574 404.01)"/><path class="f" d="M291.731,404.076A41.918,41.918,0,0,0,295.262,411l3.287-2.013a37.752,37.752,0,0,1-3.21-6.3Z" transform="translate(-107.468 395.275)"/><path class="f" d="M306.7,388.071a43.207,43.207,0,0,0-7.743,1.439l1.068,3.658a39.524,39.524,0,0,1,7.038-1.309Z" transform="translate(-86.704 354.25)"/><path class="f" d="M302.023,389.189a43.009,43.009,0,0,0-6.682,4.1l2.346,3.03a38.727,38.727,0,0,1,6.074-3.73Z" transform="translate(-97.102 357.387)"/><path class="f" d="M291.164,402.545l3.806.689a37.786,37.786,0,0,1,1.943-6.775l-3.616-1.37A41.653,41.653,0,0,0,291.164,402.545Z" transform="translate(-109.096 373.943)"/><path class="f" d="M291.719,406.787l3.8-.7a37.885,37.885,0,0,1-.666-7.015l-3.872.008A41.309,41.309,0,0,0,291.719,406.787Z" transform="translate(-109.616 385.119)"/><path class="f" d="M312.252,391.59l-2.853,2.577a38.747,38.747,0,0,1,4.344,5.6l3.283-2.021A42.7,42.7,0,0,0,312.252,391.59Z" transform="translate(-56.734 364.125)"/><path class="f" d="M292.62,397.827l3.291,2a38.4,38.4,0,0,1,4.309-5.629l-2.869-2.554A41.982,41.982,0,0,0,292.62,397.827Z" transform="translate(-104.915 364.27)"/><path class="f" d="M302.026,410.557a38.6,38.6,0,0,1-5.3-4.738l-2.857,2.565A41.84,41.84,0,0,0,299.7,413.6Z" transform="translate(-101.317 404.052)"/><path class="f" d="M303.247,388.065l-.341,3.791a39.721,39.721,0,0,1,7.046,1.264L311,389.454A43.813,43.813,0,0,0,303.247,388.065Z" transform="translate(-75.379 354.233)"/><path class="f" d="M317.141,402.47a41.239,41.239,0,0,0-2.184-7.445l-3.6,1.393a37.285,37.285,0,0,1,1.982,6.759Z" transform="translate(-51.124 373.763)"/><path class="f" d="M310.543,408.972l3.291,2.006a41.679,41.679,0,0,0,3.515-6.938l-3.616-1.366A38.011,38.011,0,0,1,310.543,408.972Z" transform="translate(-53.45 395.224)"/><path class="f" d="M312.527,399.149a37.735,37.735,0,0,1-.654,7.011l3.8.7a41.239,41.239,0,0,0,.72-7.821l-.767-.019Z" transform="translate(-49.63 384.962)"/><path class="f" d="M308.168,389.159l-1.715,3.414a38.925,38.925,0,0,1,6.1,3.688l2.323-3.041A43.029,43.029,0,0,0,308.168,389.159Z" transform="translate(-65.194 357.303)"/></g></g></g></g></svg>