<svg xmlns="http://www.w3.org/2000/svg" width="88.695" height="92.228" viewBox="0 0 88.695 92.228"><defs><style>.a{fill:none;stroke:#484848;stroke-linecap:round;stroke-linejoin:round;stroke-width:2.5px;}</style></defs><g transform="translate(-64.75 -465.803)"><path class="a" d="M139.13,545.22V467.053H66v76.675c0,5.166,2.419,10.264,7.528,12.108a14.316,14.316,0,0,0,11.193-.544c3.56-1.788,7-5.965,7.21-10.071h60.258S152.563,555,141,556.734H79.921"/><line class="a" x2="55.557" transform="translate(74.024 478.175)"/><line class="a" x2="55.557" transform="translate(74.024 489.46)"/><line class="a" x2="55.557" transform="translate(74.024 500.745)"/><line class="a" x2="24.089" transform="translate(74.024 511.893)"/><line class="a" x2="24.089" transform="translate(74.024 523.041)"/><line class="a" x2="24.089" transform="translate(74.024 534.189)"/><path class="a" d="M153.653,560.5l6.671,7.392,11.087-17.252" transform="translate(-41.046 -39.144)"/><path class="a" d="M166.2,558.86a11.554,11.554,0,1,1-5.2-6.621" transform="translate(-36.323 -39.143)"/></g></svg>