<svg xmlns="http://www.w3.org/2000/svg" width="53.427" height="53.427" viewBox="0 0 53.427 53.427"><defs><style>.a{fill:#fff;}</style></defs><path class="a" d="M146.31,383.264H109.579a8.349,8.349,0,0,0-8.348,8.348v36.731a8.348,8.348,0,0,0,8.348,8.348H146.31a8.348,8.348,0,0,0,8.348-8.348V391.612A8.349,8.349,0,0,0,146.31,383.264Zm-7.744,21.267c.012.235.017.469.017.708a15.587,15.587,0,0,1-24,13.131A11.1,11.1,0,0,0,122.7,416.1a5.482,5.482,0,0,1-5.117-3.807,5.483,5.483,0,0,0,2.473-.093,5.487,5.487,0,0,1-4.4-5.374v-.068a5.43,5.43,0,0,0,2.484.685,5.49,5.49,0,0,1-1.7-7.318,15.552,15.552,0,0,0,11.3,5.727,5.486,5.486,0,0,1,9.34-5,11.033,11.033,0,0,0,3.481-1.327,5.5,5.5,0,0,1-2.411,3.029,10.874,10.874,0,0,0,3.147-.86A11.128,11.128,0,0,1,138.567,404.531Z" transform="translate(-101.231 -383.264)"/></svg>