<svg xmlns="http://www.w3.org/2000/svg" width="53.427" height="53.427" viewBox="0 0 53.427 53.427"><defs><style>.a{fill:#fff;}</style></defs><path class="a" d="M194.115,383.264H157.384a8.349,8.349,0,0,0-8.348,8.348v36.731a8.348,8.348,0,0,0,8.348,8.348h36.731a8.35,8.35,0,0,0,8.348-8.348V391.612A8.351,8.351,0,0,0,194.115,383.264Zm-25.658,39.479H162.73V405.52h5.727Zm-2.863-19.574h-.038a3.271,3.271,0,1,1,.038,0Zm23.513,19.574H183.38v-9.215c0-2.316-.828-3.9-2.9-3.9a3.139,3.139,0,0,0-2.938,2.1,3.89,3.89,0,0,0-.189,1.394v9.62h-5.725s.073-15.609,0-17.224h5.725v2.439a5.687,5.687,0,0,1,5.161-2.843c3.767,0,6.595,2.461,6.595,7.754Z" transform="translate(-149.036 -383.264)"/></svg>