<svg xmlns="http://www.w3.org/2000/svg" width="33.048" height="27.317" viewBox="0 0 33.048 27.317"><defs><style>.a{fill:#eb4124;}</style></defs><g transform="translate(0)"><g transform="translate(2.785)"><path class="a" d="M259.307,411.638v1.682l-1.622-.091a.5.5,0,0,0-.518.182,5.488,5.488,0,0,0-.428.864l-10.59,24.68h-2.343l-10.545-24.68q-.5-1.045-1.036-1.045l-1.262.091v-1.682H242.5v1.682l-2.253-.091a.414.414,0,0,0-.361.2.847.847,0,0,0-.135.477,1.438,1.438,0,0,0,.09.409l7.391,17.226,7.21-16.727a2.811,2.811,0,0,0,.315-1.091q0-.5-.541-.5l-2.163.091v-1.682Z" transform="translate(-230.962 -411.638)"/></g><path class="a" d="M342.412,447.224q-.653.092-.652-1.007V427.881l0,0v-3.8h-1.015l-3.449,7.994v14.14q0,1.007-.652,1.007l-1.6-.092v1.693h8.734v-1.693Z" transform="translate(-310.73 -421.509)"/><path class="a" d="M223.271,447.224q-.922,0-.922-1.007V427.881h0l-1.507-3.8h-.476v3.8h0v18.336q0,1.007-.97,1.007l-1.892-.092v1.693h8.15v-1.693Z" transform="translate(-217.498 -421.509)"/></g></svg>