<svg xmlns="http://www.w3.org/2000/svg" width="128.466" height="98.554" viewBox="0 0 128.466 98.554"><defs><style>.a,.b{fill:none;stroke:#484848;stroke-width:2.5px;}.a{stroke-miterlimit:10;}.b{stroke-linecap:round;stroke-linejoin:round;}</style></defs><g transform="translate(1.25 1.25)"><rect class="a" width="25.152" height="37.088" rx="5.709" transform="translate(0 58.966)"/><path class="b" d="M238.837,439.48a20,20,0,0,0,4.575-.054,5.812,5.812,0,0,0,2.8-2.178c.889-1.026,1.847-1.986,2.813-2.939,2.616-2.579,5.5-5.79,8.862-7.378a15.394,15.394,0,0,1,7.176-1.089l29.108-.025c1.425,0,.7,4.508.581,5.272-.457,2.967-2.976,5.2-5.479,6.61-2.825,1.591-6.087,1.187-9.2,1.156l-6.528-.064s-1.719.229-1.49,1.26a1.67,1.67,0,0,0,1.617,1.533h27.8c1.63,0,3.189.4,4.439-.852,2.441-2.439,4.861-4.9,7.291-7.352,3.372-3.371,6.781-6.707,10.089-10.143,2.682-2.786,5-5.486,9.286-4.565,0,0,4.656.535,6.744,4.335,0,0,.642,1.231,0,1.927l-19.727,19.623-6.977,6.938c-1.681,1.672-3.064,3.981-5.235,5.077-2.554,1.291-5.881,1.73-8.636,2.517l-20.555,5.873c-6.2,1.771-12.978,1.284-19.431,1.434l-17.661.411-2.257.053" transform="translate(-213.685 -374.755)"/><path class="b" d="M319.739,425.859l6.6-5.913c2.366-2.118,8.466-1.872,10.519.768" transform="translate(-238.638 -374.767)"/><path class="a" d="M315.625,441.5l2.6-2.539,6.054-5.9,6.872-6.7,5.059-4.933A9.286,9.286,0,0,1,340,418.987a8.915,8.915,0,0,1,4.715.046,14.085,14.085,0,0,1,2.228.79,3.979,3.979,0,0,1,1.851,1.227" transform="translate(-237.369 -374.817)"/><line class="b" y2="17.358" transform="translate(67.324 21.923)"/><line class="b" x1="17.358" transform="translate(58.645 30.602)"/><line class="b" y2="8.437" transform="translate(54.427 0)"/><line class="b" x1="8.437" transform="translate(50.208 4.218)"/><line class="b" y2="11.708" transform="translate(88.759 6.201)"/><line class="b" x1="11.708" transform="translate(82.905 12.055)"/></g></svg>