<svg xmlns="http://www.w3.org/2000/svg" width="53.427" height="53.427" viewBox="0 0 53.427 53.427"><defs><style>.a{fill:#fff;}</style></defs><path class="a" d="M98.505,383.264H61.774a8.35,8.35,0,0,0-8.348,8.348v36.731a8.349,8.349,0,0,0,8.348,8.348H98.505a8.348,8.348,0,0,0,8.348-8.348V391.612A8.349,8.349,0,0,0,98.505,383.264ZM85.863,409.986H82.12v13.348H76.573V409.986h-2.64v-4.715h2.64v-3.052c0-2.181,1.037-5.6,5.6-5.6l4.109.015v4.58H83.3A1.13,1.13,0,0,0,82.12,402.5v2.772h4.229Z" transform="translate(-53.426 -383.264)"/></svg>