<svg xmlns="http://www.w3.org/2000/svg" width="106.979" height="126.007" viewBox="0 0 106.979 126.007"><defs><style>.a,.b{fill:none;stroke:#484848;stroke-width:2.5px;}.a{stroke-miterlimit:10;}.b{stroke-linecap:round;stroke-linejoin:round;}</style></defs><g transform="translate(-271.768 -1138.81)"><g transform="translate(273 1155.581)"><path class="a" d="M189.572,426.216c-9.753,3.718-20.342,6.965-25.152,17.146-4.636,9.811-3.436,21.715-2.7,32.221" transform="translate(-161.015 -367.596)"/><path class="b" d="M347.343,426.216c9.753,3.718,20.342,6.965,25.152,17.146,4.636,9.811,3.436,21.715,2.7,32.221" transform="translate(-271.385 -367.596)"/><rect class="b" width="34.98" height="8.228" rx="4.114" transform="translate(34.631 48.705)"/><path class="b" d="M272.926,442.259a6.514,6.514,0,0,0,13.027,0Z" transform="translate(-227.305 -377.099)"/><path class="b" d="M247.608,331.122a25.111,25.111,0,0,0-1.923-8.963,34.023,34.023,0,0,0-4.155-6.613,21.046,21.046,0,0,1,17.183-33.128" transform="translate(-206.448 -282.418)"/><path class="b" d="M300.4,331.122a25.111,25.111,0,0,1,1.923-8.963,34.022,34.022,0,0,1,4.155-6.613A21.046,21.046,0,0,0,289.3,282.419" transform="translate(-237.004 -282.418)"/><path class="b" d="M266.891,304.181s-10.358,3-9.734,13.852" transform="translate(-217.948 -295.309)"/><rect class="b" width="28.426" height="8.228" rx="4.114" transform="translate(38.052 56.932)"/></g><line class="b" x1="4.636" y1="4.887" transform="translate(296.593 1150.687)"/><line class="b" y1="4.887" x2="4.636" transform="translate(294.653 1194.64)"/><line class="b" y1="0.362" x2="6.464" transform="translate(288.19 1175.895)"/><g transform="translate(350.241 1150.687)"><line class="b" y1="4.887" x2="4.636"/><line class="b" x1="4.636" y1="4.887" transform="translate(1.939 43.953)"/><line class="b" x1="6.464" y1="0.362" transform="translate(6.575 25.208)"/></g><line class="b" y2="5.455" transform="translate(325.033 1140.06)"/></g></svg>